<mxfile host="Electron" agent="Mozilla/5.0 (Windows NT 10.0; Win64; x64) AppleWebKit/537.36 (KHTML, like Gecko) draw.io/24.6.4 Chrome/124.0.6367.207 Electron/30.0.6 Safari/537.36" modified="2025-03-11T14:43:12.866Z" version="24.6.4" etag="XyIy2p7Hda0nJwQHTgjn" type="device">
  <diagram name="Страница — 1" id="bwv7ngIfAG2ciVa7OPDN">
    <mxGraphModel dx="1593" dy="929" grid="1" gridSize="10" guides="1" tooltips="1" connect="1" arrows="1" fold="1" page="1" pageScale="1" pageWidth="827" pageHeight="1169" math="0" shadow="0">
      <root>
        <mxCell id="0" />
        <mxCell id="1" parent="0" />
        <mxCell id="fcCqiFTtpSIbQf2iGS6h-5" style="rounded=0;orthogonalLoop=1;jettySize=auto;html=1;exitX=0.5;exitY=0.5;exitDx=0;exitDy=0;exitPerimeter=0;" parent="1" source="fcCqiFTtpSIbQf2iGS6h-1" target="fcCqiFTtpSIbQf2iGS6h-3" edge="1">
          <mxGeometry relative="1" as="geometry" />
        </mxCell>
        <mxCell id="fcCqiFTtpSIbQf2iGS6h-1" value="Пользователь" style="shape=umlActor;verticalLabelPosition=bottom;verticalAlign=top;html=1;outlineConnect=0;" parent="1" vertex="1">
          <mxGeometry x="304" y="60" width="30" height="60" as="geometry" />
        </mxCell>
        <mxCell id="fcCqiFTtpSIbQf2iGS6h-3" value="Поиск свободных лобби" style="ellipse;whiteSpace=wrap;html=1;" parent="1" vertex="1">
          <mxGeometry x="380" y="147" width="110" height="65" as="geometry" />
        </mxCell>
        <mxCell id="fcCqiFTtpSIbQf2iGS6h-4" value="Фильтрация по имени лобби" style="ellipse;whiteSpace=wrap;html=1;" parent="1" vertex="1">
          <mxGeometry x="550" y="140" width="120" height="50" as="geometry" />
        </mxCell>
        <mxCell id="fcCqiFTtpSIbQf2iGS6h-7" style="rounded=0;orthogonalLoop=1;jettySize=auto;html=1;exitX=0;exitY=0.5;exitDx=0;exitDy=0;entryX=1.008;entryY=0.304;entryDx=0;entryDy=0;entryPerimeter=0;dashed=1;" parent="1" source="fcCqiFTtpSIbQf2iGS6h-4" target="fcCqiFTtpSIbQf2iGS6h-3" edge="1">
          <mxGeometry relative="1" as="geometry" />
        </mxCell>
        <mxCell id="fcCqiFTtpSIbQf2iGS6h-8" value="&amp;lt;&amp;lt;extend&amp;gt;&amp;gt;" style="edgeLabel;html=1;align=center;verticalAlign=middle;resizable=0;points=[];" parent="fcCqiFTtpSIbQf2iGS6h-7" vertex="1" connectable="0">
          <mxGeometry x="-0.0108" y="-1" relative="1" as="geometry">
            <mxPoint x="10" y="15" as="offset" />
          </mxGeometry>
        </mxCell>
        <mxCell id="fcCqiFTtpSIbQf2iGS6h-16" value="Игрок" style="shape=umlActor;verticalLabelPosition=bottom;verticalAlign=top;html=1;outlineConnect=0;" parent="1" vertex="1">
          <mxGeometry x="383" y="275" width="30" height="60" as="geometry" />
        </mxCell>
        <mxCell id="fcCqiFTtpSIbQf2iGS6h-22" value="Выбор клетки для стрельбы" style="ellipse;whiteSpace=wrap;html=1;" parent="1" vertex="1">
          <mxGeometry x="475" y="295" width="140" height="60" as="geometry" />
        </mxCell>
        <mxCell id="fcCqiFTtpSIbQf2iGS6h-23" value="Получение ответа от сервера" style="ellipse;whiteSpace=wrap;html=1;" parent="1" vertex="1">
          <mxGeometry x="655" y="365" width="123.5" height="60" as="geometry" />
        </mxCell>
        <mxCell id="fcCqiFTtpSIbQf2iGS6h-25" value="Запрос серверу" style="ellipse;whiteSpace=wrap;html=1;" parent="1" vertex="1">
          <mxGeometry x="495" y="455.58000000000004" width="120" height="65" as="geometry" />
        </mxCell>
        <mxCell id="fcCqiFTtpSIbQf2iGS6h-26" value="Отрисовка результата хода" style="ellipse;whiteSpace=wrap;html=1;" parent="1" vertex="1">
          <mxGeometry x="685" y="465.5799999999999" width="116" height="55" as="geometry" />
        </mxCell>
        <mxCell id="fcCqiFTtpSIbQf2iGS6h-32" style="rounded=0;orthogonalLoop=1;jettySize=auto;html=1;exitX=0.5;exitY=0.5;exitDx=0;exitDy=0;exitPerimeter=0;entryX=0.029;entryY=0.307;entryDx=0;entryDy=0;entryPerimeter=0;" parent="1" source="fcCqiFTtpSIbQf2iGS6h-16" target="fcCqiFTtpSIbQf2iGS6h-22" edge="1">
          <mxGeometry relative="1" as="geometry" />
        </mxCell>
        <mxCell id="fcCqiFTtpSIbQf2iGS6h-33" style="rounded=0;orthogonalLoop=1;jettySize=auto;html=1;exitX=0.5;exitY=0;exitDx=0;exitDy=0;entryX=1;entryY=0.5;entryDx=0;entryDy=0;dashed=1;" parent="1" source="fcCqiFTtpSIbQf2iGS6h-23" target="fcCqiFTtpSIbQf2iGS6h-22" edge="1">
          <mxGeometry relative="1" as="geometry" />
        </mxCell>
        <mxCell id="fcCqiFTtpSIbQf2iGS6h-42" value="&amp;lt;&amp;lt;extend&amp;gt;&amp;gt;" style="edgeLabel;html=1;align=center;verticalAlign=middle;resizable=0;points=[];" parent="fcCqiFTtpSIbQf2iGS6h-33" vertex="1" connectable="0">
          <mxGeometry x="-0.1698" y="-1" relative="1" as="geometry">
            <mxPoint as="offset" />
          </mxGeometry>
        </mxCell>
        <mxCell id="fcCqiFTtpSIbQf2iGS6h-36" style="rounded=0;orthogonalLoop=1;jettySize=auto;html=1;exitX=0.5;exitY=0;exitDx=0;exitDy=0;entryX=0.652;entryY=0.989;entryDx=0;entryDy=0;entryPerimeter=0;dashed=1;" parent="1" source="fcCqiFTtpSIbQf2iGS6h-25" target="fcCqiFTtpSIbQf2iGS6h-22" edge="1">
          <mxGeometry relative="1" as="geometry" />
        </mxCell>
        <mxCell id="fcCqiFTtpSIbQf2iGS6h-49" value="&amp;lt;&amp;lt;extend&amp;gt;&amp;gt;" style="edgeLabel;html=1;align=center;verticalAlign=middle;resizable=0;points=[];" parent="fcCqiFTtpSIbQf2iGS6h-36" vertex="1" connectable="0">
          <mxGeometry x="-0.1075" y="1" relative="1" as="geometry">
            <mxPoint as="offset" />
          </mxGeometry>
        </mxCell>
        <mxCell id="fcCqiFTtpSIbQf2iGS6h-39" style="rounded=0;orthogonalLoop=1;jettySize=auto;html=1;entryX=0.5;entryY=1;entryDx=0;entryDy=0;dashed=1;exitX=0.5;exitY=0;exitDx=0;exitDy=0;" parent="1" source="fcCqiFTtpSIbQf2iGS6h-26" target="fcCqiFTtpSIbQf2iGS6h-23" edge="1">
          <mxGeometry relative="1" as="geometry">
            <mxPoint x="725" y="505" as="sourcePoint" />
          </mxGeometry>
        </mxCell>
        <mxCell id="fcCqiFTtpSIbQf2iGS6h-46" value="&amp;lt;&amp;lt;include&amp;gt;&amp;gt;" style="edgeLabel;html=1;align=center;verticalAlign=middle;resizable=0;points=[];" parent="fcCqiFTtpSIbQf2iGS6h-39" vertex="1" connectable="0">
          <mxGeometry x="-0.0947" y="-2" relative="1" as="geometry">
            <mxPoint as="offset" />
          </mxGeometry>
        </mxCell>
        <mxCell id="fcCqiFTtpSIbQf2iGS6h-40" style="rounded=0;orthogonalLoop=1;jettySize=auto;html=1;exitX=1;exitY=0;exitDx=0;exitDy=0;entryX=0;entryY=1;entryDx=0;entryDy=0;dashed=1;" parent="1" source="4BpWKvasJpn93aTp2SfP-10" target="fcCqiFTtpSIbQf2iGS6h-52" edge="1">
          <mxGeometry relative="1" as="geometry" />
        </mxCell>
        <mxCell id="fcCqiFTtpSIbQf2iGS6h-41" value="&amp;lt;&amp;lt;extend&amp;gt;&amp;gt;" style="edgeLabel;html=1;align=center;verticalAlign=middle;resizable=0;points=[];" parent="fcCqiFTtpSIbQf2iGS6h-40" vertex="1" connectable="0">
          <mxGeometry x="-0.1934" y="1" relative="1" as="geometry">
            <mxPoint y="-1" as="offset" />
          </mxGeometry>
        </mxCell>
        <mxCell id="fcCqiFTtpSIbQf2iGS6h-47" value="Проверка корректности хода" style="ellipse;whiteSpace=wrap;html=1;" parent="1" vertex="1">
          <mxGeometry x="265" y="420" width="145" height="65.58" as="geometry" />
        </mxCell>
        <mxCell id="fcCqiFTtpSIbQf2iGS6h-48" style="rounded=0;orthogonalLoop=1;jettySize=auto;html=1;exitX=1;exitY=0.5;exitDx=0;exitDy=0;entryX=0.003;entryY=0.387;entryDx=0;entryDy=0;entryPerimeter=0;dashed=1;" parent="1" source="fcCqiFTtpSIbQf2iGS6h-47" target="fcCqiFTtpSIbQf2iGS6h-25" edge="1">
          <mxGeometry relative="1" as="geometry" />
        </mxCell>
        <mxCell id="fcCqiFTtpSIbQf2iGS6h-50" value="&amp;lt;&amp;lt;include&amp;gt;&amp;gt;" style="edgeLabel;html=1;align=center;verticalAlign=middle;resizable=0;points=[];" parent="fcCqiFTtpSIbQf2iGS6h-48" vertex="1" connectable="0">
          <mxGeometry x="-0.0714" y="2" relative="1" as="geometry">
            <mxPoint y="1" as="offset" />
          </mxGeometry>
        </mxCell>
        <mxCell id="fcCqiFTtpSIbQf2iGS6h-52" value="Растановка своих кораблей" style="ellipse;whiteSpace=wrap;html=1;" parent="1" vertex="1">
          <mxGeometry x="175" y="295" width="140" height="55" as="geometry" />
        </mxCell>
        <mxCell id="fcCqiFTtpSIbQf2iGS6h-53" value="Проверка корректности растановки" style="ellipse;whiteSpace=wrap;html=1;" parent="1" vertex="1">
          <mxGeometry x="25" y="475" width="140" height="60" as="geometry" />
        </mxCell>
        <mxCell id="fcCqiFTtpSIbQf2iGS6h-54" style="rounded=0;orthogonalLoop=1;jettySize=auto;html=1;exitX=0.5;exitY=0.5;exitDx=0;exitDy=0;exitPerimeter=0;entryX=0.945;entryY=0.263;entryDx=0;entryDy=0;entryPerimeter=0;" parent="1" source="fcCqiFTtpSIbQf2iGS6h-16" target="fcCqiFTtpSIbQf2iGS6h-52" edge="1">
          <mxGeometry relative="1" as="geometry" />
        </mxCell>
        <mxCell id="4BpWKvasJpn93aTp2SfP-2" value="Создание лобби" style="ellipse;whiteSpace=wrap;html=1;" vertex="1" parent="1">
          <mxGeometry x="140" y="145" width="110" height="70" as="geometry" />
        </mxCell>
        <mxCell id="4BpWKvasJpn93aTp2SfP-6" style="rounded=0;orthogonalLoop=1;jettySize=auto;html=1;exitX=0.5;exitY=0.5;exitDx=0;exitDy=0;exitPerimeter=0;entryX=1;entryY=0;entryDx=0;entryDy=0;" edge="1" parent="1" source="fcCqiFTtpSIbQf2iGS6h-1" target="4BpWKvasJpn93aTp2SfP-2">
          <mxGeometry relative="1" as="geometry">
            <mxPoint x="329" y="100" as="sourcePoint" />
            <mxPoint x="424" y="151" as="targetPoint" />
          </mxGeometry>
        </mxCell>
        <mxCell id="4BpWKvasJpn93aTp2SfP-8" style="rounded=0;orthogonalLoop=1;jettySize=auto;html=1;exitX=0.486;exitY=-0.061;exitDx=0;exitDy=0;entryX=0.5;entryY=1;entryDx=0;entryDy=0;dashed=1;exitPerimeter=0;" edge="1" parent="1" source="fcCqiFTtpSIbQf2iGS6h-53" target="4BpWKvasJpn93aTp2SfP-10">
          <mxGeometry relative="1" as="geometry">
            <mxPoint x="255" y="415" as="sourcePoint" />
            <mxPoint x="345" y="440" as="targetPoint" />
          </mxGeometry>
        </mxCell>
        <mxCell id="4BpWKvasJpn93aTp2SfP-9" value="&amp;lt;&amp;lt;include&amp;gt;&amp;gt;" style="edgeLabel;html=1;align=center;verticalAlign=middle;resizable=0;points=[];" vertex="1" connectable="0" parent="4BpWKvasJpn93aTp2SfP-8">
          <mxGeometry x="-0.0714" y="2" relative="1" as="geometry">
            <mxPoint y="1" as="offset" />
          </mxGeometry>
        </mxCell>
        <mxCell id="4BpWKvasJpn93aTp2SfP-10" value="Уведомление сервера о растановке" style="ellipse;whiteSpace=wrap;html=1;" vertex="1" parent="1">
          <mxGeometry x="45" y="365" width="140" height="60" as="geometry" />
        </mxCell>
        <mxCell id="4BpWKvasJpn93aTp2SfP-11" value="Уведомление другого игрока о ходе" style="ellipse;whiteSpace=wrap;html=1;" vertex="1" parent="1">
          <mxGeometry x="270" y="505.58" width="145" height="64.42" as="geometry" />
        </mxCell>
        <mxCell id="4BpWKvasJpn93aTp2SfP-12" style="rounded=0;orthogonalLoop=1;jettySize=auto;html=1;exitX=1;exitY=0;exitDx=0;exitDy=0;dashed=1;" edge="1" parent="1" source="4BpWKvasJpn93aTp2SfP-11" target="fcCqiFTtpSIbQf2iGS6h-25">
          <mxGeometry relative="1" as="geometry">
            <mxPoint x="415" y="470.58000000000004" as="sourcePoint" />
            <mxPoint x="505" y="490.58000000000004" as="targetPoint" />
          </mxGeometry>
        </mxCell>
        <mxCell id="4BpWKvasJpn93aTp2SfP-13" value="&amp;lt;&amp;lt;include&amp;gt;&amp;gt;" style="edgeLabel;html=1;align=center;verticalAlign=middle;resizable=0;points=[];" vertex="1" connectable="0" parent="4BpWKvasJpn93aTp2SfP-12">
          <mxGeometry x="-0.0714" y="2" relative="1" as="geometry">
            <mxPoint y="1" as="offset" />
          </mxGeometry>
        </mxCell>
      </root>
    </mxGraphModel>
  </diagram>
</mxfile>
